<svg id="Layer_1" data-name="Layer 1" xmlns="http://www.w3.org/2000/svg" viewBox="0 0 100 100"><defs><style>.cls-1{fill:#fdb913;}</style></defs><path class="cls-1" d="M50,0a50,50,0,1,0,50,50A50,50,0,0,0,50,0ZM73.41,20.09a66,66,0,0,1-4.25,6.19H57.8A14.83,14.83,0,0,1,61,33H73.1c.15,0,.22.09.22.18q-4.06,6.1-4.16,6.1H61.29a17.92,17.92,0,0,1-3,7.56q-3.63,4.47-6.94,5.79a27.54,27.54,0,0,1-11.85,3v.09q0,.43,25.6,30.37H53.82Q28.89,57,28.89,56.82V50.94l.09-.22a37.19,37.19,0,0,0,5.17.31q14,0,17.38-9.06a7.38,7.38,0,0,0,.53-2.74H26.77a.16.16,0,0,1-.18-.18C29.39,35,30.82,33,30.88,33H51v-.09c-1.15-2.32-3.37-4.14-6.67-5.43a20.74,20.74,0,0,0-6.37-1.15H26.68v-.22Q30.75,20,30.88,20H73.41Z"/></svg>