<svg id="Layer_1" data-name="Layer 1" xmlns="http://www.w3.org/2000/svg" viewBox="0 0 100 100"><defs><style>.cls-1{fill:#fdb913;}</style></defs><polygon class="cls-1" points="32.26 55.72 32.26 34.14 26.57 35.94 32.26 55.72"/><polygon class="cls-1" points="58.03 26.65 49.94 29.05 58.93 29.05 58.03 26.65"/><path class="cls-1" d="M38.25,74h36V35h-36Zm9-30h18a3,3,0,0,1,0,6h-18a3,3,0,0,1,0-6Zm0,15h18a3,3,0,0,1,3,3,2.83,2.83,0,0,1-3,3h-18a3,3,0,1,1,0-6Z"/><path class="cls-1" d="M50,0a50,50,0,1,0,50,50A50.06,50.06,0,0,0,50,0ZM80.21,77a2.83,2.83,0,0,1-3,3h-42a3,3,0,0,1-3-2.1L20,34.74a2.93,2.93,0,0,1,2.1-3.89L59.53,20.06a3.26,3.26,0,0,1,3.6,2.1l2.1,6.89h12a3.22,3.22,0,0,1,3,3Z"/></svg>