<svg id="Layer_1" data-name="Layer 1" xmlns="http://www.w3.org/2000/svg" viewBox="0 0 100 100"><defs><style>.cls-1{fill:#ed1c24;}</style></defs><circle class="cls-1" cx="50" cy="50" r="25.7"/><path class="cls-1" d="M50,19a3.61,3.61,0,0,0,3.61-3.61V3.61a3.61,3.61,0,0,0-7.22,0V15.36A3.61,3.61,0,0,0,50,19Z"/><path class="cls-1" d="M50,81a3.61,3.61,0,0,0-3.61,3.61V96.39a3.61,3.61,0,0,0,7.22,0V84.64A3.61,3.61,0,0,0,50,81Z"/><path class="cls-1" d="M96.39,46.39H84.64a3.61,3.61,0,0,0,0,7.22H96.39a3.61,3.61,0,0,0,0-7.22Z"/><path class="cls-1" d="M19,50a3.61,3.61,0,0,0-3.61-3.61H3.61a3.61,3.61,0,0,0,0,7.22H15.36A3.61,3.61,0,0,0,19,50Z"/><path class="cls-1" d="M74.5,29.12a3.61,3.61,0,0,0,2.55-1.06l8.31-8.31a3.61,3.61,0,1,0-5.11-5.11L71.94,23a3.62,3.62,0,0,0,2.56,6.17Z"/><path class="cls-1" d="M23,71.94l-8.31,8.31a3.61,3.61,0,0,0,5.11,5.11l8.31-8.31A3.61,3.61,0,0,0,23,71.94Z"/><path class="cls-1" d="M77.05,71.94a3.61,3.61,0,0,0-5.11,5.11l8.31,8.31a3.61,3.61,0,1,0,5.11-5.11Z"/><path class="cls-1" d="M23,28.06A3.61,3.61,0,0,0,28.06,23l-8.31-8.31a3.61,3.61,0,0,0-5.11,5.11Z"/></svg>