<svg id="Layer_1" data-name="Layer 1" xmlns="http://www.w3.org/2000/svg" viewBox="0 0 100 100"><defs><style>.cls-1{fill:#fdb913;}</style></defs><path class="cls-1" d="M61,54.49H37.33a3.25,3.25,0,0,0,0,6.5H61a3.25,3.25,0,0,0,0-6.5Z"/><path class="cls-1" d="M41.69,42.21h4.85v4.85a1.15,1.15,0,0,0,1.16,1.16H54a1.15,1.15,0,0,0,1.16-1.16V42.21H60a1.15,1.15,0,0,0,1.16-1.15V34.75A1.15,1.15,0,0,0,60,33.6H55.16V28.74A1.15,1.15,0,0,0,54,27.59H47.7a1.15,1.15,0,0,0-1.16,1.15V33.6H41.69a1.15,1.15,0,0,0-1.16,1.15v6.31A1.15,1.15,0,0,0,41.69,42.21Z"/><path class="cls-1" d="M61,68.22h-9.4a3.25,3.25,0,0,0,0,6.5H61a3.25,3.25,0,0,0,0-6.5Z"/><path class="cls-1" d="M63.15,23.18a.49.49,0,0,0-.84.35v3.75a3.14,3.14,0,0,0,3.14,3.13h3.87a.48.48,0,0,0,.34-.83Z"/><path class="cls-1" d="M50,0a50,50,0,1,0,50,50A50,50,0,0,0,50,0ZM72.78,75.05a4.94,4.94,0,0,1-4.94,5H32.16a4.94,4.94,0,0,1-4.94-5V25A4.94,4.94,0,0,1,32.16,20H62.89a2.75,2.75,0,0,1,1.93.79l7.13,7a2.82,2.82,0,0,1,.83,2Z"/></svg>