<svg id="Layer_1" data-name="Layer 1" xmlns="http://www.w3.org/2000/svg" viewBox="0 0 100 100"><defs><style>.cls-1{fill:#fdb913;}</style></defs><path class="cls-1" d="M87.44,47.37v.05h0a4.52,4.52,0,0,0,4.42,3.79,3.4,3.4,0,0,0,.71-.05,4.5,4.5,0,1,0-5.11-3.79Z"/><path class="cls-1" d="M89.06,36.39a4.5,4.5,0,0,0,1.69-6.14v0a4.5,4.5,0,1,0-1.68,6.16Z"/><path class="cls-1" d="M49.77,64.32a5.67,5.67,0,0,1-3.12-.93L36.86,57a3,3,0,1,1,3.28-5l9.61,6.27L70.4,40.51A23.8,23.8,0,1,0,73,46.15L53.51,62.94A5.75,5.75,0,0,1,49.77,64.32Z"/><path class="cls-1" d="M77.12,25.4a4.49,4.49,0,1,0-2.87-1A4.5,4.5,0,0,0,77.12,25.4Z"/><path class="cls-1" d="M92.15,57a4.5,4.5,0,0,0-5,3.92A37.63,37.63,0,1,1,50.28,15.73a4.33,4.33,0,0,0,1.12-.16v5.54a2.77,2.77,0,0,0,4.36,2.25l12.81-9.19a2.75,2.75,0,0,0,0-4.48L55.75.51a2.76,2.76,0,0,0-4.36,2.25V6.9a4.34,4.34,0,0,0-1.13-.16,46.63,46.63,0,1,0,45.66,56A4.5,4.5,0,0,0,92.15,57Z"/></svg>