<svg id="Layer_1" data-name="Layer 1" xmlns="http://www.w3.org/2000/svg" viewBox="0 0 100 100"><defs><style>.cls-1{fill:#fdb913;}</style></defs><path class="cls-1" d="M50,46.23a3.54,3.54,0,1,0,3.54,3.54A3.54,3.54,0,0,0,50,46.23Z"/><path class="cls-1" d="M63.3,46.23a3.54,3.54,0,1,0,3.54,3.54A3.53,3.53,0,0,0,63.3,46.23Z"/><path class="cls-1" d="M36.63,46.23a3.54,3.54,0,1,0,3.54,3.54A3.54,3.54,0,0,0,36.63,46.23Z"/><path class="cls-1" d="M50,0a50,50,0,1,0,50,50A50.06,50.06,0,0,0,50,0ZM77.89,65.31a4.16,4.16,0,0,1-4,4.19H45.82v4.59a1,1,0,0,1-1.77.79L37.2,69.5H26.14a4.2,4.2,0,0,1-4-4.19V34.83a4.38,4.38,0,0,1,4-4.38H73.91a4.34,4.34,0,0,1,4,4.38Z"/></svg>