<svg id="Layer_1" data-name="Layer 1" xmlns="http://www.w3.org/2000/svg" viewBox="0 0 100 100"><defs><style>.cls-1{fill:#fdb913;}</style></defs><path class="cls-1" d="M50,0a50,50,0,1,0,50,50A50.06,50.06,0,0,0,50,0ZM25.18,76.59a5.65,5.65,0,1,1,5.66-5.65A5.66,5.66,0,0,1,25.18,76.59ZM30.43,66.5l-.94-.78a6.94,6.94,0,0,0-2.41-1.26l-1.18-.35,7.21-13.55,1,.78a6.94,6.94,0,0,0,2.41,1.26l1.18.35Zm7.94-14.72A5.66,5.66,0,1,1,44,46.12,5.67,5.67,0,0,1,38.37,51.78Zm16.57,1.27-.14,1.22L43.6,50.54l.61-1.06a6.63,6.63,0,0,0,.85-2.55l.14-1.22,11.2,3.73-.61,1.06A6.81,6.81,0,0,0,54.94,53.05Zm6.69,6.48a5.66,5.66,0,1,1,5.66-5.65A5.66,5.66,0,0,1,61.63,59.53Zm5.25-10.09-.94-.78a6.94,6.94,0,0,0-2.41-1.26l-1.17-.35L69.57,33.5l.94.78a6.94,6.94,0,0,0,2.41,1.26l1.17.35Zm7.94-14.73a5.65,5.65,0,1,1,5.65-5.65A5.66,5.66,0,0,1,74.82,34.71Z"/></svg>