<svg id="Layer_1" data-name="Layer 1" xmlns="http://www.w3.org/2000/svg" viewBox="0 0 100 100"><defs><style>.cls-1{fill:#fdb913;}</style></defs><path class="cls-1" d="M50,28.79A23.33,23.33,0,1,0,73.33,52.12,23.36,23.36,0,0,0,50,28.79ZM60.6,54.24H50a2.12,2.12,0,0,1-2.12-2.12V33a2.12,2.12,0,1,1,4.24,0V50H60.6a2.12,2.12,0,1,1,0,4.24Z"/><path class="cls-1" d="M50,0a50,50,0,1,0,50,50A50.06,50.06,0,0,0,50,0ZM74,20.93a2.12,2.12,0,0,1,3,0l2.12,2.12a2.12,2.12,0,0,1-1.5,3.62,2.15,2.15,0,0,1-1.5-.62L74,23.93A2.12,2.12,0,0,1,74,20.93Zm-8.48,0a2.12,2.12,0,0,1,3,0l10.6,10.6a2.12,2.12,0,0,1,0,3,2.07,2.07,0,0,1-1.5.62,2.1,2.1,0,0,1-1.5-.62l-10.6-10.6A2.12,2.12,0,0,1,65.47,20.93ZM20.93,23.05l2.12-2.12a2.12,2.12,0,0,1,3,3l-2.12,2.12a2.15,2.15,0,0,1-1.5.62,2.12,2.12,0,0,1-1.5-3.62Zm0,8.48,10.6-10.6a2.12,2.12,0,0,1,3,3l-10.6,10.6a2.1,2.1,0,0,1-1.5.62,2.07,2.07,0,0,1-1.5-.62A2.12,2.12,0,0,1,20.93,31.53ZM81.19,79.07a2.07,2.07,0,0,1-1.5.62,2.1,2.1,0,0,1-1.5-.62L70.08,71a27.46,27.46,0,0,1-40.16,0l-8.11,8.11a2.1,2.1,0,0,1-1.5.62,2.07,2.07,0,0,1-1.5-.62,2.12,2.12,0,0,1,0-3l8.42-8.42a27.57,27.57,0,1,1,45.54,0l8.42,8.42A2.12,2.12,0,0,1,81.19,79.07Z"/></svg>