<svg id="Layer_1" data-name="Layer 1" xmlns="http://www.w3.org/2000/svg" viewBox="0 0 100 100"><defs><style>.cls-1{fill:#fdb913;}</style></defs><path class="cls-1" d="M19.06,51.23l6.75-20.15a2,2,0,0,1,2-1.39,2.09,2.09,0,0,1,1.88,1.63l8.83,42.5L52.7,16.41a2.09,2.09,0,0,1,2-1.55,2.05,2.05,0,0,1,2,1.59L68.8,65.69l8.13-20.55a2,2,0,0,1,1.88-1.27h20.8A50,50,0,0,0,0,50c0,.41,0,.82,0,1.23Z"/><path class="cls-1" d="M80.2,48l-10,25.25a2.07,2.07,0,0,1-2,1.27,2,2,0,0,1-1.83-1.55L54.7,25.48,40.36,83.55a2.1,2.1,0,0,1-2,1.59h0a2,2,0,0,1-2-1.63L27.24,39.58,22.46,53.92a2,2,0,0,1-1.92,1.39H.28A50,50,0,0,0,100,50c0-.69,0-1.36,0-2Z"/></svg>